<svg width="20" height="20" viewBox="0 0 20 20" fill="none" xmlns="http://www.w3.org/2000/svg">
<mask id="path-1-inside-1_3346_24465" fill="white">
<path d="M13.3332 20.0001V11.5788C13.3332 11.2996 13.2161 11.0319 13.0077 10.8344C12.7994 10.637 12.5167 10.5261 12.2221 10.5261H7.77761C7.48293 10.5261 7.20031 10.637 6.99194 10.8344C6.78357 11.0319 6.6665 11.2996 6.6665 11.5788V20.0001"/>
</mask>
<path d="M12.3332 20.0001C12.3332 20.5524 12.7809 21.0001 13.3332 21.0001C13.8855 21.0001 14.3332 20.5524 14.3332 20.0001H12.3332ZM5.6665 20.0001C5.6665 20.5524 6.11422 21.0001 6.6665 21.0001C7.21879 21.0001 7.6665 20.5524 7.6665 20.0001H5.6665ZM14.3332 20.0001V11.5788H12.3332V20.0001H14.3332ZM14.3332 11.5788C14.3332 11.0164 14.0969 10.4888 13.6955 10.1085L12.32 11.5604C12.328 11.568 12.3312 11.5739 12.3323 11.5765C12.3334 11.5791 12.3332 11.5796 12.3332 11.5788H14.3332ZM13.6955 10.1085C13.2959 9.72997 12.765 9.52612 12.2221 9.52612V11.5261C12.2684 11.5261 12.3028 11.5441 12.32 11.5604L13.6955 10.1085ZM12.2221 9.52612H7.77761V11.5261H12.2221V9.52612ZM7.77761 9.52612C7.23463 9.52612 6.70373 9.72997 6.30419 10.1085L7.6797 11.5604C7.6969 11.5441 7.73123 11.5261 7.77761 11.5261V9.52612ZM6.30419 10.1085C5.90281 10.4888 5.6665 11.0164 5.6665 11.5788H7.6665C7.6665 11.5796 7.66624 11.5791 7.66734 11.5765C7.66847 11.5739 7.67168 11.568 7.6797 11.5604L6.30419 10.1085ZM5.6665 11.5788V20.0001H7.6665V11.5788H5.6665Z" fill="white" mask="url(#path-1-inside-1_3346_24465)"/>
<path d="M10 0.5C10.4129 0.5 10.8093 0.637857 11.1191 0.884766V0.885742L18.8975 7.2002L18.8994 7.20215C19.0901 7.35485 19.2418 7.54378 19.3447 7.75391C19.4476 7.96392 19.5001 8.19171 19.5 8.4209V17.8945C19.5 18.3113 19.3251 18.7171 19.0049 19.0205C18.6837 19.3246 18.2425 19.5 17.7773 19.5H2.22266C1.75755 19.5 1.31626 19.3246 0.995117 19.0205C0.674872 18.7171 0.5 18.3113 0.5 17.8945V8.4209C0.499942 8.19171 0.552414 7.96392 0.655273 7.75391C0.75819 7.54379 0.909872 7.35485 1.10059 7.20215L1.10254 7.2002L8.87988 0.884766C9.18983 0.637559 9.58685 0.5 10 0.5Z" stroke="white" stroke-linecap="round" stroke-linejoin="round"/>
</svg>
