<svg width="19" height="18" viewBox="0 0 19 18" fill="none" xmlns="http://www.w3.org/2000/svg">
<path fill-rule="evenodd" clip-rule="evenodd" d="M9.50018 1.88092L7.55518 5.84092C7.44782 6.06023 7.28854 6.25001 7.09118 6.39378C6.89382 6.53755 6.66434 6.63097 6.42268 6.66592L2.06418 7.30242L5.22118 10.3949C5.39491 10.5655 5.52483 10.7755 5.59988 11.007C5.67493 11.2386 5.69287 11.4849 5.65218 11.7249L4.90768 16.0859L8.79868 14.0304C9.01482 13.9161 9.25565 13.8563 9.50018 13.8563C9.74471 13.8563 9.98554 13.9161 10.2017 14.0304L14.0927 16.0854L13.3482 11.7254C13.3074 11.4853 13.3253 11.2389 13.4004 11.0073C13.4754 10.7756 13.6054 10.5655 13.7792 10.3949L16.9367 7.30242L12.5777 6.66592C12.336 6.63097 12.1065 6.53755 11.9092 6.39378C11.7118 6.25001 11.5525 6.06023 11.4452 5.84092L9.50018 1.88092ZM9.95168 0.531924C9.91037 0.447368 9.84615 0.376112 9.76633 0.326269C9.6865 0.276426 9.59429 0.25 9.50018 0.25C9.40607 0.25 9.31386 0.276426 9.23404 0.326269C9.15421 0.376112 9.08999 0.447368 9.04868 0.531924L6.65768 5.39992C6.58418 5.54892 6.44268 5.65242 6.27818 5.67642L0.93218 6.45692C0.51918 6.51742 0.35418 7.02742 0.65318 7.31992L4.52218 11.1094C4.64068 11.2254 4.69518 11.3929 4.66718 11.5569L3.75368 16.9069C3.68318 17.3204 4.11468 17.6359 4.48418 17.4409L9.26618 14.9144C9.41318 14.8369 9.58818 14.8369 9.73518 14.9144L14.5172 17.4409C14.8867 17.6359 15.3182 17.3209 15.2477 16.9074L14.3342 11.5574C14.3201 11.4766 14.326 11.3935 14.3513 11.3155C14.3765 11.2374 14.4204 11.1667 14.4792 11.1094L18.3482 7.31992C18.6467 7.02742 18.4822 6.51742 18.0692 6.45692L12.7227 5.67692C12.6417 5.66496 12.5649 5.6335 12.4988 5.58525C12.4326 5.53699 12.3793 5.47339 12.3432 5.39992L9.95168 0.531924Z" fill="#A4A4A4"/>
</svg>
