<svg width="24" height="25" viewBox="0 0 24 25" fill="none" xmlns="http://www.w3.org/2000/svg">
<path d="M6.66649 23.7198H17.3336C19.4131 23.7198 20.4476 22.6651 20.4476 20.5758V11.4554C20.4476 10.1594 20.3071 9.59708 19.5035 8.77337L13.9586 3.13851C13.1958 2.35465 12.5726 2.18408 11.4378 2.18408H6.66649C4.59735 2.18408 3.55249 3.24865 3.55249 5.33837V20.5758C3.55249 22.6749 4.59735 23.7198 6.66649 23.7198ZM6.74663 22.1028C5.71206 22.1028 5.16949 21.5499 5.16949 20.5458V5.36837C5.16949 4.37408 5.71206 3.80108 6.75692 3.80108H11.2166V9.63737C11.2166 10.9029 11.8595 11.5257 13.1049 11.5257H18.8306V20.5458C18.8306 21.5499 18.2979 22.1028 17.2535 22.1028H6.74663ZM13.2858 10.0085C12.8941 10.0085 12.7329 9.84822 12.7329 9.44622V4.11265L18.5186 10.0089L13.2858 10.0085ZM15.6965 14.2878H8.0722C7.71092 14.2878 7.44992 14.5591 7.44992 14.9007C7.44992 15.2521 7.71135 15.5234 8.07263 15.5234H15.6965C15.7786 15.5247 15.8602 15.5095 15.9364 15.4787C16.0125 15.4479 16.0817 15.402 16.1398 15.3439C16.1979 15.2859 16.2437 15.2167 16.2745 15.1405C16.3053 15.0644 16.3205 14.9828 16.3192 14.9007C16.3192 14.5591 16.0479 14.2878 15.6965 14.2878ZM15.6965 17.7935H8.0722C7.71092 17.7935 7.44992 18.0747 7.44992 18.4261C7.44992 18.7677 7.71135 19.0291 8.07263 19.0291H15.6965C16.0479 19.0291 16.3192 18.7677 16.3192 18.4261C16.3192 18.0747 16.0479 17.7935 15.6965 17.7935Z" fill="white"/>
</svg>
