<svg width="24" height="25" viewBox="0 0 24 25" fill="none" xmlns="http://www.w3.org/2000/svg">
<g clip-path="url(#clip0_3221_41976)">
<path d="M9.85728 2.71431C9.06163 2.71431 8.29857 3.03038 7.73596 3.59299C7.17335 4.15559 6.85728 4.91866 6.85728 5.71431V7.85716H4.71443C4.37343 7.85716 4.04641 7.99262 3.80529 8.23374C3.56417 8.47486 3.42871 8.80189 3.42871 9.14288V19.8572C3.42871 20.7665 3.78993 21.6385 4.43292 22.2815C5.0759 22.9245 5.94797 23.2857 6.85728 23.2857H15.5016L14.2159 22H6.85728C6.28896 22 5.74392 21.7743 5.34205 21.3724C4.94019 20.9705 4.71443 20.4255 4.71443 19.8572V9.14288H13.7144V12.1429H15.0001V9.14288H19.2859V13.4972L20.5716 14.7829V9.14288C20.5716 8.80189 20.4361 8.47486 20.195 8.23374C19.9539 7.99262 19.6268 7.85716 19.2859 7.85716H17.143V5.71431C17.1431 5.11832 16.9657 4.53581 16.6333 4.04107C16.301 3.54634 15.8289 3.16179 15.2771 2.93649C14.7253 2.71119 14.119 2.65534 13.5353 2.77606C12.9517 2.89678 12.4172 3.1886 12.0001 3.61431C11.7208 3.3293 11.3874 3.1029 11.0194 2.94836C10.6515 2.79382 10.2564 2.71425 9.85728 2.71431ZM15.8573 5.71431V7.85716H12.8573V5.71431C12.8577 5.3958 12.8073 5.07926 12.7081 4.77659C12.9102 4.46756 13.2066 4.23201 13.5533 4.105C13.8999 3.97798 14.2784 3.96629 14.6322 4.07166C14.9861 4.17703 15.2965 4.39383 15.5172 4.6898C15.7379 4.98577 15.8572 5.34509 15.8573 5.71431ZM9.85728 4.00002C10.3119 4.00002 10.748 4.18063 11.0695 4.50212C11.391 4.82361 11.5716 5.25965 11.5716 5.71431V7.85716H8.143V5.71431C8.143 5.25965 8.32361 4.82361 8.6451 4.50212C8.96659 4.18063 9.40263 4.00002 9.85728 4.00002ZM12.001 17.8686L12.0001 14.7169C12.0001 14.2622 12.1808 13.8262 12.5022 13.5047C12.8237 13.1832 13.2598 13.0026 13.7144 13.0026L16.867 13.0043C17.3215 13.0042 17.7574 13.1845 18.079 13.5057L22.6416 18.0674C23.311 18.736 23.311 19.822 22.6416 20.4906L19.4907 23.6406C19.3315 23.7999 19.1425 23.9262 18.9345 24.0124C18.7264 24.0986 18.5035 24.1429 18.2783 24.1429C18.0531 24.1429 17.8301 24.0986 17.6221 24.0124C17.4141 23.9262 17.225 23.7999 17.0659 23.6406L12.5033 19.0797C12.182 18.7585 12.0013 18.3229 12.001 17.8686ZM13.7144 15.5715C13.7144 15.7988 13.8047 16.0168 13.9655 16.1775C14.1262 16.3383 14.3442 16.4286 14.5716 16.4286C14.7989 16.4286 15.0169 16.3383 15.1777 16.1775C15.3384 16.0168 15.4287 15.7988 15.4287 15.5715C15.4287 15.3441 15.3384 15.1261 15.1777 14.9654C15.0169 14.8046 14.7989 14.7143 14.5716 14.7143C14.3442 14.7143 14.1262 14.8046 13.9655 14.9654C13.8047 15.1261 13.7144 15.3441 13.7144 15.5715Z" fill="white"/>
</g>
<defs>
<clipPath id="clip0_3221_41976">
<rect width="24" height="24" fill="white" transform="translate(0 0.952148)"/>
</clipPath>
</defs>
</svg>
