<svg width="28" height="23" viewBox="0 0 28 23" fill="none" xmlns="http://www.w3.org/2000/svg">
<path d="M3.33985 9.04536L2.41242 9.04963C2.16741 9.0475 1.92498 9.0953 1.69927 9.19023C1.47356 9.28516 1.2691 9.42532 1.09781 9.60254C0.925626 9.77934 0.79003 9.98987 0.69896 10.2218C0.60789 10.4538 0.563175 10.7025 0.567434 10.9534C0.566714 11.2033 0.614579 11.4515 0.708248 11.6834C0.801917 11.9153 0.939522 12.1264 1.11307 12.3044C1.28648 12.4821 1.49272 12.6227 1.71949 12.7177C1.94626 12.8127 2.18893 12.8603 2.43301 12.8576L3.3158 12.8268M8.94813 15.8584L8.95711 20.4707C8.95293 20.973 8.7584 21.452 8.41443 21.8068C8.07046 22.1616 7.60386 22.3647 7.11278 22.3733C6.86885 22.3718 6.62709 22.3211 6.4014 22.2239C6.1757 22.1267 5.97053 21.9851 5.79769 21.8072C5.62486 21.6292 5.48776 21.4185 5.39429 21.187C5.30082 20.9556 5.25283 20.708 5.25307 20.4586L5.28087 15.1794M26.6551 11.2275L22.8489 11.2152M25.8243 18.4603L22.5238 16.4992M25.7797 3.50687L22.4873 5.45186M16.2699 1.48777L18.1217 1.4929C18.3651 1.49307 18.6065 1.54267 18.8321 1.63883C19.0576 1.73498 19.2627 1.87577 19.4355 2.05303C19.6083 2.2303 19.7453 2.4405 19.8385 2.67144C19.9318 2.90238 19.9795 3.14947 19.9789 3.39837L20.0189 18.5832C20.0158 19.0843 19.8206 19.5621 19.4752 19.9137C19.1297 20.2654 18.6617 20.4629 18.1716 20.4639L16.3192 20.4599L16.2699 1.48777Z" stroke="white" stroke-linecap="round" stroke-linejoin="round"/>
</svg>
