<svg width="20" height="20" viewBox="0 0 20 20" fill="none" xmlns="http://www.w3.org/2000/svg">
<path d="M5.5 6.53846V5.15385C5.5 4.05218 5.97411 2.99563 6.81802 2.21663C7.66193 1.43764 8.80653 1 10 1C11.1935 1 12.3381 1.43764 13.182 2.21663C14.0259 2.99563 14.5 4.05218 14.5 5.15385V6.53846M1.75 6.53846C1.55109 6.53846 1.36032 6.6114 1.21967 6.74123C1.07902 6.87107 1 7.04716 1 7.23077V16.5769C1 17.8854 2.2075 19 3.625 19H16.375C17.7925 19 19 17.9395 19 16.631V7.23077C19 7.04716 18.921 6.87107 18.7803 6.74123C18.6397 6.6114 18.4489 6.53846 18.25 6.53846H10H1.75Z" stroke="#A4A4A4" stroke-linecap="round" stroke-linejoin="round"/>
<mask id="path-2-inside-1_3346_24471" fill="white">
<path d="M5.26318 9V9.71429C5.26318 10.8509 5.76224 11.941 6.65057 12.7447C7.5389 13.5485 8.74374 14 10 14C11.2563 14 12.4611 13.5485 13.3495 12.7447C14.2378 11.941 14.7369 10.8509 14.7369 9.71429V9"/>
</mask>
<path d="M6.26318 9C6.26318 8.44772 5.81547 8 5.26318 8C4.7109 8 4.26318 8.44772 4.26318 9H6.26318ZM15.7369 9C15.7369 8.44772 15.2892 8 14.7369 8C14.1846 8 13.7369 8.44772 13.7369 9H15.7369ZM4.26318 9V9.71429H6.26318V9H4.26318ZM4.26318 9.71429C4.26318 11.1503 4.89456 12.5045 5.97966 13.4863L7.32149 12.0032C6.62992 11.3775 6.26318 10.5516 6.26318 9.71429H4.26318ZM5.97966 13.4863C7.06144 14.465 8.50903 15 10 15V13C8.97845 13 8.01637 12.6319 7.32149 12.0032L5.97966 13.4863ZM10 15C11.491 15 12.9386 14.465 14.0204 13.4863L12.6786 12.0032C11.9837 12.6319 11.0216 13 10 13V15ZM14.0204 13.4863C15.1055 12.5045 15.7369 11.1503 15.7369 9.71429H13.7369C13.7369 10.5516 13.3701 11.3775 12.6786 12.0032L14.0204 13.4863ZM15.7369 9.71429V9H13.7369V9.71429H15.7369Z" fill="#A4A4A4" mask="url(#path-2-inside-1_3346_24471)"/>
</svg>
