<svg width="23" height="23" viewBox="0 0 23 23" fill="none" xmlns="http://www.w3.org/2000/svg">
<path d="M21.4076 12.5999L21.4076 12.5999C21.9465 12.0611 22.2495 11.3305 22.25 10.5685L21.4076 12.5999ZM21.4076 12.5999L12.4076 21.5999C12.4076 21.5999 12.4076 21.5999 12.4076 21.5999C11.8684 22.1389 11.1373 22.4417 10.375 22.4417C9.61265 22.4417 8.88152 22.1389 8.34237 21.5999L8.04469 21.8977L8.34237 21.5999L1.3989 14.6587C1.39889 14.6587 1.39888 14.6586 1.39887 14.6586C1.13187 14.3917 0.920059 14.0747 0.775551 13.7259C0.631039 13.377 0.556658 13.0032 0.556658 12.6256C0.556658 12.248 0.631039 11.8741 0.775551 11.5252C0.920065 11.1764 1.13188 10.8594 1.3989 10.5925L1.39893 10.5924M21.4076 12.5999L1.39893 10.5924M1.39893 10.5924L10.3989 1.59243L10.399 1.59237M1.39893 10.5924L10.399 1.59237M10.399 1.59237C10.938 1.0532 11.6691 0.750191 12.4315 0.75C12.4315 0.75 12.4316 0.75 12.4316 0.75L19.375 0.75C20.1375 0.75 20.8688 1.0529 21.4079 1.59207M10.399 1.59237L21.4079 1.59207M21.4079 1.59207C21.9471 2.13124 22.25 2.8625 22.25 3.625M21.4079 1.59207L22.25 3.625M22.25 3.625V10.5684V3.625ZM18.75 5.875C18.75 5.44402 18.5788 5.0307 18.274 4.72595C17.9693 4.42121 17.556 4.25 17.125 4.25C16.694 4.25 16.2807 4.42121 15.976 4.72595C15.6712 5.0307 15.5 5.44402 15.5 5.875C15.5 6.30545 15.6708 6.72005 15.976 7.02517C16.2807 7.32992 16.694 7.50113 17.125 7.50113C17.556 7.50113 17.9693 7.32992 18.274 7.02517C18.5792 6.72005 18.75 6.30545 18.75 5.875Z" stroke="#B3B3B3"/>
</svg>
