<svg width="74" height="40" viewBox="0 0 74 40" fill="none" xmlns="http://www.w3.org/2000/svg">
<path d="M4.608 27.8C3.75467 27.8 3.05067 27.6827 2.496 27.448C1.94133 27.2133 1.48267 26.904 1.12 26.52C0.672 25.944 0.448 25.2613 0.448 24.472C0.448 23.64 0.672 22.7867 1.12 21.912C1.58933 21.016 2.21867 20.2053 3.008 19.48C4.01067 18.5413 5.16267 17.784 6.464 17.208C7.76533 16.632 9.17333 16.344 10.688 16.344C11.1573 16.344 11.648 16.376 12.16 16.44C12.416 16.504 12.544 16.5573 12.544 16.6C12.544 16.664 12.448 16.696 12.256 16.696C12.1067 16.696 11.9467 16.6853 11.776 16.664C11.6267 16.6427 11.4667 16.632 11.296 16.632C10.4213 16.632 9.52533 16.8027 8.608 17.144C7.712 17.464 6.85867 17.9013 6.048 18.456C5.23733 19.0107 4.52267 19.608 3.904 20.248C3.43467 20.76 2.976 21.3787 2.528 22.104C2.10133 22.8293 1.81333 23.6187 1.664 24.472C1.64267 24.5573 1.632 24.6427 1.632 24.728C1.632 24.8133 1.632 24.8987 1.632 24.984C1.632 25.624 1.83467 26.168 2.24 26.616C2.64533 27.0427 3.30667 27.256 4.224 27.256C5.16267 27.256 6.03733 27.0213 6.848 26.552C7.68 26.0613 8.45867 25.464 9.184 24.76C9.90933 24.0347 10.5813 23.32 11.2 22.616C11.9893 21.72 12.864 20.568 13.824 19.16C14.784 17.752 15.7867 16.3547 16.832 14.968C17.536 14.0293 18.304 13.112 19.136 12.216C19.9893 11.2987 20.7573 10.6053 21.44 10.136C20.5227 10.0293 19.6053 9.912 18.688 9.784C17.7707 9.656 16.8213 9.58133 15.84 9.56C15.648 9.56 15.456 9.56 15.264 9.56C15.072 9.53867 14.8907 9.528 14.72 9.528C13.2907 9.528 11.936 9.688 10.656 10.008C9.39733 10.328 8.42667 10.9467 7.744 11.864C7.552 12.12 7.41333 12.376 7.328 12.632C7.24267 12.888 7.2 13.1333 7.2 13.368C7.2 13.6667 7.27467 13.944 7.424 14.2C7.50933 14.2853 7.60533 14.3813 7.712 14.488C7.81867 14.5733 7.91467 14.616 8 14.616C7.91467 14.7013 7.79733 14.744 7.648 14.744C7.49867 14.744 7.34933 14.712 7.2 14.648C7.072 14.5627 6.96533 14.4773 6.88 14.392C6.66667 14.1573 6.50667 13.8907 6.4 13.592C6.29333 13.272 6.24 12.9627 6.24 12.664C6.24 12.0667 6.38933 11.5653 6.688 11.16C7.84 9.58133 9.78133 8.792 12.512 8.792C12.6827 8.792 12.8533 8.792 13.024 8.792C13.216 8.792 13.3973 8.80267 13.568 8.824C15.1467 8.90933 16.704 9.06933 18.24 9.304C19.7973 9.53867 21.4293 9.656 23.136 9.656C24.0747 9.656 24.9173 9.61333 25.664 9.528C26.432 9.42133 26.944 9.24 27.2 8.984H27.264C27.3493 8.984 27.424 9.016 27.488 9.08C27.5733 9.12267 27.616 9.208 27.616 9.336C27.616 9.69867 27.4133 9.976 27.008 10.168C26.6027 10.3387 26.1867 10.4347 25.76 10.456C25.0987 10.456 24.448 10.4347 23.808 10.392C23.168 10.3493 22.5387 10.2853 21.92 10.2C21.3867 10.5413 20.7253 11.1387 19.936 11.992C19.168 12.8453 18.4213 13.9013 17.696 15.16C16.864 16.5893 16 18.0507 15.104 19.544C14.2293 21.0373 13.28 22.4027 12.256 23.64C11.2533 24.8773 10.1227 25.88 8.864 26.648C7.62667 27.416 6.208 27.8 4.608 27.8ZM17.748 27.16C17.1293 27.16 16.692 27.0107 16.436 26.712C16.1587 26.392 16.02 25.9973 16.02 25.528C16.02 24.9307 16.1907 24.2267 16.532 23.416C16.8947 22.6053 17.3747 21.784 17.972 20.952C18.5693 20.12 19.2413 19.352 19.988 18.648C20.7347 17.9227 21.492 17.3467 22.26 16.92C23.0493 16.472 23.8067 16.248 24.532 16.248C25.0653 16.248 25.4493 16.3867 25.684 16.664C25.9187 16.9413 26.036 17.304 26.036 17.752C26.036 18.3493 25.8653 19.064 25.524 19.896C25.1827 20.7067 24.7133 21.5387 24.116 22.392C23.54 23.224 22.8893 24.0027 22.164 24.728C21.46 25.4533 20.724 26.04 19.956 26.488C19.188 26.936 18.452 27.16 17.748 27.16ZM18.132 26.552C18.58 26.552 19.1133 26.328 19.732 25.88C20.372 25.4107 21.0227 24.8133 21.684 24.088C22.3453 23.3627 22.9533 22.5947 23.508 21.784C24.084 20.952 24.5427 20.1733 24.884 19.448C25.2467 18.7013 25.428 18.0933 25.428 17.624C25.428 17.112 25.1827 16.856 24.692 16.856C24.2867 16.856 23.7747 17.1013 23.156 17.592C22.5587 18.0613 21.9293 18.6693 21.268 19.416C20.628 20.1627 20.02 20.952 19.444 21.784C18.868 22.616 18.3987 23.4053 18.036 24.152C17.6947 24.8987 17.524 25.4853 17.524 25.912C17.524 26.3387 17.7267 26.552 18.132 26.552Z" fill="white"/>
<path d="M39.1875 29H30.25V28.1875H32.75V11.0625H30.25V10.25H44.6562L44.8125 15.875H44.1875L43.75 14.4062C43.7292 14.3229 43.6979 14.2188 43.6562 14.0938C43.0104 12.0729 41.9375 11.0625 40.4375 11.0625H35.4375V18.875H41.875V19.7812H35.4375V28.1875H39.1875V29ZM54.0312 29H46.375V28.1875H48.875V11.0625H46.375V10.25H54.0312V11.0625H51.5625V28.1875H53.2188C53.3229 28.1875 53.4271 28.1979 53.5312 28.2188C53.8646 28.2812 54.0312 28.5417 54.0312 29ZM68.4688 29H59.875V28.1875H62.8438V11.0625H61.1562C59.5521 11.1875 58.4167 12.2708 57.75 14.3125L57.25 16.4062H56.375L56.5312 10.25H71.9688L72.125 16.4062H71.25L70.75 14.3125C70.7292 14.2708 70.7188 14.2083 70.7188 14.125C70.1562 12.0833 69.0312 11.0625 67.3438 11.0625H65.5312V28.1875H67.6562C67.7604 28.1875 67.8646 28.1979 67.9688 28.2188C68.3021 28.2812 68.4688 28.5417 68.4688 29Z" fill="white"/>
</svg>
