<svg width="73" height="36" viewBox="0 0 73 36" fill="none" xmlns="http://www.w3.org/2000/svg">
<path d="M18.3025 19.165C17.6645 19.165 17.2135 19.011 16.9495 18.703C16.6635 18.373 16.5205 17.966 16.5205 17.482C16.5205 16.866 16.6965 16.14 17.0485 15.304C17.4225 14.468 17.9175 13.621 18.5335 12.763C19.1495 11.905 19.8425 11.113 20.6125 10.387C21.3825 9.63902 22.1635 9.04502 22.9555 8.60502C23.7695 8.14302 24.5505 7.91202 25.2985 7.91202C25.8485 7.91202 26.2445 8.05502 26.4865 8.34102C26.7285 8.62702 26.8495 9.00102 26.8495 9.46302C26.8495 10.079 26.6735 10.816 26.3215 11.674C25.9695 12.51 25.4855 13.368 24.8695 14.248C24.2755 15.106 23.6045 15.909 22.8565 16.657C22.1305 17.405 21.3715 18.01 20.5795 18.472C19.7875 18.934 19.0285 19.165 18.3025 19.165ZM18.6985 18.538C19.1605 18.538 19.7105 18.307 20.3485 17.845C21.0085 17.361 21.6795 16.745 22.3615 15.997C23.0435 15.249 23.6705 14.457 24.2425 13.621C24.8365 12.763 25.3095 11.96 25.6615 11.212C26.0355 10.442 26.2225 9.81502 26.2225 9.33102C26.2225 8.80302 25.9695 8.53902 25.4635 8.53902C25.0455 8.53902 24.5175 8.79202 23.8795 9.29802C23.2635 9.78202 22.6145 10.409 21.9325 11.179C21.2725 11.949 20.6455 12.763 20.0515 13.621C19.4575 14.479 18.9735 15.293 18.5995 16.063C18.2475 16.833 18.0715 17.438 18.0715 17.878C18.0715 18.318 18.2805 18.538 18.6985 18.538Z" fill="white"/>
<path d="M4.75191 19.825C3.87191 19.825 3.14591 19.704 2.57391 19.462C2.00191 19.22 1.52891 18.901 1.15491 18.505C0.692914 17.911 0.461914 17.207 0.461914 16.393C0.461914 15.535 0.692914 14.655 1.15491 13.753C1.63891 12.829 2.28791 11.993 3.10191 11.245C4.13591 10.277 5.32391 9.49602 6.66591 8.90202C8.00791 8.30802 9.45991 8.01102 11.0219 8.01102C11.5059 8.01102 12.0119 8.04402 12.5399 8.11002C12.8039 8.17602 12.9359 8.23102 12.9359 8.27502C12.9359 8.34102 12.8369 8.37402 12.6389 8.37402C12.4849 8.37402 12.3199 8.36302 12.1439 8.34102C11.9899 8.31902 11.8249 8.30802 11.6489 8.30802C10.7469 8.30802 9.82291 8.48402 8.87691 8.83602C7.95291 9.16602 7.07291 9.61702 6.23691 10.189C5.40091 10.761 4.66391 11.377 4.02591 12.037C3.54191 12.565 3.06891 13.203 2.60691 13.951C2.16691 14.699 1.86991 15.513 1.71591 16.393C1.69391 16.481 1.68291 16.569 1.68291 16.657C1.68291 16.745 1.68291 16.833 1.68291 16.921C1.68291 17.581 1.89191 18.142 2.30991 18.604C2.72791 19.044 3.40991 19.264 4.35591 19.264C5.32391 19.264 6.22591 19.022 7.06191 18.538C7.91992 18.032 8.72291 17.416 9.47091 16.69C10.2189 15.942 10.9119 15.205 11.5499 14.479C12.3639 13.555 13.2659 12.367 14.2559 10.915C15.2459 9.46302 16.2799 8.02202 17.3579 6.59202C18.0839 5.62402 18.8759 4.67802 19.7339 3.75402C20.6139 2.80802 21.4059 2.09302 22.1099 1.60902C21.1639 1.49902 20.2179 1.37802 19.2719 1.24602C18.3259 1.11402 17.3469 1.03702 16.3349 1.01502C16.1369 1.01502 15.9389 1.01502 15.7409 1.01502C15.5429 0.993023 15.3559 0.982023 15.1799 0.982023C13.7059 0.982023 12.3089 1.14702 10.9889 1.47702C9.69092 1.80702 8.68991 2.44502 7.98591 3.39102C7.78791 3.65502 7.64491 3.91902 7.55691 4.18302C7.46891 4.44702 7.42491 4.70002 7.42491 4.94202C7.42491 5.25002 7.50191 5.53602 7.65591 5.80002C7.74391 5.88802 7.84291 5.98702 7.95291 6.09702C8.06291 6.18502 8.16191 6.22902 8.24991 6.22902C8.16191 6.31702 8.04091 6.36102 7.88691 6.36102C7.73291 6.36102 7.57891 6.32802 7.42491 6.26202C7.29291 6.17402 7.18291 6.08602 7.09491 5.99802C6.87491 5.75602 6.70991 5.48102 6.59991 5.17302C6.48991 4.84302 6.43491 4.52402 6.43491 4.21602C6.43491 3.60002 6.58891 3.08302 6.89691 2.66502C8.08491 1.03702 10.0869 0.223022 12.9029 0.223022C13.0789 0.223022 13.2549 0.223022 13.4309 0.223022C13.6289 0.223022 13.8159 0.234023 13.9919 0.256022C15.6199 0.344023 17.2259 0.509022 18.8099 0.751021C20.4159 0.993021 22.0989 1.11402 23.8589 1.11402C24.8269 1.11402 25.6959 1.07002 26.4659 0.982023C27.2579 0.872023 27.7859 0.685023 28.0499 0.421022H28.1159C28.2039 0.421022 28.2809 0.454022 28.3469 0.520022C28.4349 0.564022 28.4789 0.652022 28.4789 0.784021C28.4789 1.15802 28.2699 1.44402 27.8519 1.64202C27.4339 1.81802 27.0049 1.91702 26.5649 1.93902C25.8829 1.93902 25.2119 1.91702 24.5519 1.87302C23.8919 1.82902 23.2429 1.76302 22.6049 1.67502C22.0549 2.02702 21.3729 2.64302 20.5589 3.52302C19.7669 4.40302 18.9969 5.49202 18.2489 6.79002C17.3909 8.26402 16.4999 9.77102 15.5759 11.311C14.6739 12.851 13.6949 14.259 12.6389 15.535C11.6049 16.811 10.4389 17.845 9.14091 18.637C7.86491 19.429 6.40191 19.825 4.75191 19.825Z" fill="white"/>
<path d="M69.002 19H60.9453V18.2383H63.7285V2.18362H62.1465C60.6426 2.3008 59.5781 3.31643 58.9531 5.23049L58.4844 7.19338H57.6641L57.8105 1.4219H72.2832L72.4297 7.19338H71.6094L71.1406 5.23049C71.1211 5.19143 71.1113 5.13284 71.1113 5.05471C70.584 3.14065 69.5293 2.18362 67.9473 2.18362H66.248V18.2383H68.2402C68.3379 18.2383 68.4355 18.2481 68.5332 18.2676C68.8457 18.3262 69.002 18.5703 69.002 19Z" fill="white"/>
<path d="M55.4668 19H48.2891V18.2383H50.6328V2.18362H48.2891V1.4219H55.4668V2.18362H53.1523V18.2383H54.7051C54.8027 18.2383 54.9004 18.2481 54.998 18.2676C55.3105 18.3262 55.4668 18.5703 55.4668 19Z" fill="white"/>
<path d="M41.5508 19H33.1719V18.2383H35.5156V2.18362H33.1719V1.4219H46.6777L46.8242 6.69534H46.2383L45.8281 5.31838C45.8086 5.24026 45.7793 5.1426 45.7402 5.02541C45.1348 3.13088 44.1289 2.18362 42.7227 2.18362H38.0352V9.50784H44.0703V10.3574H38.0352V18.2383H41.5508V19Z" fill="white"/>
<path d="M63.8545 32.8535C63.8545 33.4095 63.6585 33.888 63.2666 34.2891C62.6924 34.8542 61.8812 35.1367 60.833 35.1367C59.9398 35.1367 59.1423 34.9043 58.4404 34.4395C58.4404 34.6309 58.4313 34.763 58.4131 34.836C58.3766 34.9636 58.249 35.0274 58.0303 35.0274V32.1973H58.4404C58.5954 33.8835 59.3701 34.7357 60.7646 34.7539C61.1201 34.7539 61.4437 34.6901 61.7354 34.5625C62.3551 34.28 62.665 33.8197 62.665 33.1817C62.665 32.9356 62.6058 32.7077 62.4873 32.4981C62.2686 32.1244 61.749 31.7552 60.9287 31.3906C60.0446 31.0078 59.5251 30.7754 59.3701 30.6934C58.5133 30.2103 58.085 29.586 58.085 28.8203C58.085 28.3099 58.2673 27.8633 58.6318 27.4805C59.1787 26.9336 59.9443 26.6602 60.9287 26.6602C61.7399 26.6602 62.4691 26.8379 63.1162 27.1934C63.1162 27.084 63.1253 26.9974 63.1436 26.9336C63.18 26.7969 63.3076 26.7285 63.5264 26.7285V29.1211H63.1162C63.1253 28.6107 62.9977 28.1778 62.7334 27.8223C62.3324 27.3028 61.749 27.043 60.9834 27.043C60.6735 27.043 60.391 27.0931 60.1357 27.1934C59.5433 27.4304 59.2471 27.8542 59.2471 28.4649C59.2471 28.6927 59.3018 28.9069 59.4111 29.1074C59.6208 29.472 60.1312 29.8275 60.9424 30.1739C61.8356 30.5658 62.3688 30.8073 62.542 30.8985C63.417 31.3906 63.8545 32.0423 63.8545 32.8535Z" fill="white" fill-opacity="0.7"/>
<path d="M57.21 35H54.2568V34.6446H55.1455L54.1201 31.9922H51.2627L50.2373 34.6446H50.9072C50.9528 34.6446 50.9984 34.6491 51.0439 34.6582C51.1898 34.6856 51.2627 34.7995 51.2627 35H48.8291V34.6446H49.6904L52.7529 26.7969H53.2588L56.3896 34.6446H56.8545C56.9001 34.6446 56.9456 34.6491 56.9912 34.6582C57.137 34.6856 57.21 34.7995 57.21 35ZM53.9697 31.5957L52.6846 28.2871L51.4131 31.5957H53.9697Z" fill="white" fill-opacity="0.7"/>
<path d="M47.79 34.3711C46.9515 34.8724 46.0719 35.1276 45.1514 35.1367C43.8936 35.1367 42.8727 34.7175 42.0889 33.8789C41.3506 33.0677 40.9814 32.0651 40.9814 30.8711C40.9814 29.8867 41.2458 29.0163 41.7744 28.2598C42.54 27.1934 43.6429 26.6602 45.083 26.6602C45.5205 26.6602 45.9489 26.7103 46.3682 26.8106C47.0062 26.9746 47.4574 27.1888 47.7217 27.4531C47.7217 27.2071 47.7354 27.0293 47.7627 26.9199C47.8083 26.7923 47.9313 26.7285 48.1318 26.7285L48.1729 29.2442H47.8447C47.7809 29.0436 47.7035 28.8477 47.6123 28.6563C47.1019 27.5808 46.277 27.043 45.1377 27.043C44.6364 27.043 44.1807 27.1706 43.7705 27.4258C42.8317 28.0365 42.3623 29.194 42.3623 30.8985C42.3623 31.6914 42.4671 32.3796 42.6768 32.9629C43.1051 34.1569 43.9118 34.7539 45.0967 34.7539C46.4912 34.7448 47.4209 33.9883 47.8857 32.4844H48.2139V35.0684C48.1045 35.0684 48.0179 35.0547 47.9541 35.0274C47.8447 34.9727 47.79 34.7539 47.79 34.3711Z" fill="white" fill-opacity="0.7"/>
<path d="M35.8271 35H32.4775V34.6446H33.5713V27.1524H32.4775V26.7969H36.5244C37.2354 26.7969 37.8324 26.961 38.3154 27.2891C38.9079 27.6992 39.2041 28.2461 39.2041 28.9297C39.2041 29.2123 39.1449 29.4903 39.0264 29.7637C38.7074 30.4564 38.1149 30.9076 37.249 31.1172L39.4502 34.6446H39.9697C40.0335 34.6446 40.0882 34.6491 40.1338 34.6582C40.2432 34.6856 40.2979 34.7995 40.2979 35H38.2334L36.0459 31.2403H34.7471V34.6446H35.8271V35ZM36.1143 27.1524H34.7471V30.8438H36.1553C36.5654 30.8438 36.9255 30.7207 37.2354 30.4746C37.6911 30.11 37.9189 29.5996 37.9189 28.9434C37.9189 28.6517 37.8597 28.3737 37.7412 28.1094C37.4404 27.4714 36.8981 27.1524 36.1143 27.1524Z" fill="white" fill-opacity="0.7"/>
<path d="M31.9307 35H28.9775V34.6446H29.8662L28.8408 31.9922H25.9834L24.958 34.6446H25.6279C25.6735 34.6446 25.7191 34.6491 25.7646 34.6582C25.9105 34.6856 25.9834 34.7995 25.9834 35H23.5498V34.6446H24.4111L27.4736 26.7969H27.9795L31.1104 34.6446H31.5752C31.6208 34.6446 31.6663 34.6491 31.7119 34.6582C31.8577 34.6856 31.9307 34.7995 31.9307 35ZM28.6904 31.5957L27.4053 28.2871L26.1338 31.5957H28.6904Z" fill="white" fill-opacity="0.7"/>
<path d="M23.1396 26.7969V27.1524H22.0459V34.6446H22.7842C22.8298 34.6446 22.8753 34.6491 22.9209 34.6582C23.0667 34.6856 23.1396 34.7995 23.1396 35H19.8584V34.6446H20.9521V28.0274L17.7939 35.0684H17.5068L14.5127 28.7656V34.6446H15.251C15.2965 34.6446 15.3421 34.6491 15.3877 34.6582C15.5335 34.6856 15.6064 34.7995 15.6064 35H12.8721V34.6446H13.9658V27.1524H12.8721V26.7969H14.8271L17.999 33.4824L20.9521 26.7969H23.1396Z" fill="white" fill-opacity="0.7"/>
</svg>
