<svg width="27" height="24" viewBox="0 0 27 24" fill="none" xmlns="http://www.w3.org/2000/svg">
<path d="M8.93237 22.9535L1.98887 16.0122C1.67542 15.6988 1.42676 15.3268 1.25712 14.9173C1.08747 14.5077 1.00016 14.0688 1.00016 13.6256C1.00016 13.1823 1.08747 12.7434 1.25712 12.3339C1.42676 11.9244 1.67542 11.5523 1.98887 11.2389L10.9889 2.23887C11.6217 1.6059 12.48 1.25019 13.375 1.25" stroke="#B3B3B3"/>
<path d="M25.3509 13.3499L25.351 13.3499C25.8899 12.8112 26.1929 12.0805 26.1934 11.3185L25.3509 13.3499ZM25.3509 13.3499L16.351 22.3499C16.351 22.3499 16.3509 22.3499 16.3509 22.3499C15.8118 22.8889 15.0807 23.1917 14.3184 23.1917C13.556 23.1917 12.8249 22.8889 12.2857 22.3499L11.9322 22.7035L12.2857 22.3499L5.34226 15.4087C5.34225 15.4087 5.34224 15.4086 5.34223 15.4086C5.07523 15.1417 4.86342 14.8247 4.71891 14.4759C4.5744 14.127 4.50002 13.7532 4.50002 13.3756C4.50002 12.998 4.5744 12.6241 4.71891 12.2752C4.86342 11.9264 5.07524 11.6094 5.34226 11.3425L5.34229 11.3424M25.3509 13.3499L5.34229 11.3424M5.34229 11.3424L14.3423 2.34243L14.3423 2.34237M5.34229 11.3424L14.3423 2.34237M14.3423 2.34237C14.8814 1.8032 15.6125 1.50019 16.3749 1.5C16.3749 1.5 16.3749 1.5 16.375 1.5L23.3184 1.5C24.0809 1.5 24.8121 1.8029 25.3513 2.34207M14.3423 2.34237L25.3513 2.34207M25.3513 2.34207C25.8905 2.88124 26.1934 3.6125 26.1934 4.375M25.3513 2.34207L26.1934 4.375M26.1934 4.375V11.3184V4.375ZM22.6934 6.625C22.6934 6.19402 22.5222 5.7807 22.2174 5.47595C21.9127 5.17121 21.4993 5 21.0684 5C20.6374 5 20.2241 5.17121 19.9193 5.47595C19.6146 5.7807 19.4434 6.19402 19.4434 6.625C19.4434 7.05545 19.6142 7.47005 19.9193 7.77517C20.2241 8.07992 20.6374 8.25113 21.0684 8.25113C21.4993 8.25113 21.9127 8.07992 22.2174 7.77517C22.5225 7.47005 22.6934 7.05545 22.6934 6.625Z" stroke="#B3B3B3"/>
</svg>
