<svg width="21" height="21" viewBox="0 0 21 21" fill="none" xmlns="http://www.w3.org/2000/svg">
<path fill-rule="evenodd" clip-rule="evenodd" d="M18 0C18.7956 0 19.5587 0.316071 20.1213 0.87868C20.6839 1.44129 21 2.20435 21 3V9.172C20.9996 9.96724 20.6834 10.7298 20.121 11.292L12.121 19.292C11.5584 19.8544 10.7955 20.1704 10 20.1704C9.20451 20.1704 8.44158 19.8544 7.879 19.292L1.707 13.122C1.42837 12.8434 1.20735 12.5127 1.05655 12.1487C0.905756 11.7847 0.82814 11.3945 0.82814 11.0005C0.82814 10.6065 0.905756 10.2163 1.05655 9.85233C1.20735 9.48832 1.42837 9.15758 1.707 8.879L9.707 0.879C10.2695 0.316352 11.0324 0.000169912 11.828 0L18 0ZM17 5C17 4.73478 16.8946 4.48043 16.7071 4.29289C16.5196 4.10536 16.2652 4 16 4C15.7348 4 15.4804 4.10536 15.2929 4.29289C15.1054 4.48043 15 4.73478 15 5C15 5.26522 15.1054 5.52057 15.2929 5.70811C15.4804 5.89564 15.7348 6.001 16 6.001C16.2652 6.001 16.5196 5.89564 16.7071 5.70811C16.8946 5.52057 17 5.26522 17 5Z" fill="white"/>
</svg>
