<svg width="24" height="20" viewBox="0 0 24 20" fill="none" xmlns="http://www.w3.org/2000/svg">
<path d="M21 5V16.6C21 17.93 19.93 19 18.6 19H5.4C4.07 19 3 17.93 3 16.6V5M8 9H16M2.6 1H21.4C21.8243 1 22.2313 1.16857 22.5314 1.46863C22.8314 1.76869 23 2.17565 23 2.6V3.4C23 3.61012 22.9586 3.81817 22.8782 4.01229C22.7978 4.20641 22.6799 4.3828 22.5314 4.53137C22.3828 4.67994 22.2064 4.7978 22.0123 4.87821C21.8182 4.95861 21.6101 5 21.4 5H2.6C2.17565 5 1.76869 4.83143 1.46863 4.53137C1.16857 4.23131 1 3.82435 1 3.4V2.6C1 2.38988 1.04139 2.18183 1.12179 1.98771C1.2022 1.79359 1.32006 1.6172 1.46863 1.46863C1.76869 1.16857 2.17565 1 2.6 1Z" stroke="#B3B3B3" stroke-width="1.5" stroke-miterlimit="10" stroke-linecap="round" stroke-linejoin="round"/>
</svg>
