<svg width="20" height="20" viewBox="0 0 20 20" fill="none" xmlns="http://www.w3.org/2000/svg">
<path d="M11.078 0C11.372 0 11.635 0.182998 11.734 0.456996L12.4399 2.41398C12.6926 2.47664 12.9106 2.54064 13.0939 2.60598C13.2939 2.67731 13.5539 2.78731 13.8739 2.93597L15.5178 2.06598C15.6519 1.99456 15.8056 1.96872 15.9557 1.99235C16.1058 2.01598 16.2441 2.08781 16.3498 2.19698L17.7958 3.69197C17.9877 3.89096 18.0417 4.18196 17.9338 4.43596L17.1628 6.24294C17.2901 6.47761 17.3928 6.67894 17.4708 6.84694C17.5548 7.02893 17.6588 7.28226 17.7828 7.60693L19.5797 8.37692C19.8497 8.49192 20.0167 8.76192 19.9987 9.05091L19.8667 11.1259C19.8577 11.2607 19.8093 11.3899 19.7275 11.4974C19.6457 11.605 19.5342 11.6862 19.4067 11.7309L17.7048 12.3359C17.6561 12.5705 17.6048 12.7725 17.5508 12.9419C17.4634 13.2043 17.3639 13.4626 17.2528 13.7159L18.1077 15.6059C18.1686 15.7386 18.1851 15.8873 18.1548 16.0301C18.1246 16.1729 18.0492 16.3022 17.9397 16.3988L16.3138 17.8508C16.2069 17.9464 16.0733 18.0069 15.9309 18.0241C15.7886 18.0413 15.6444 18.0143 15.5178 17.9468L13.8419 17.0588C13.5799 17.1982 13.3094 17.3208 13.0319 17.4258L12.2999 17.6998L11.65 19.4998C11.6013 19.6313 11.5143 19.7452 11.4002 19.8267C11.2861 19.9082 11.1502 19.9535 11.01 19.9568L9.11005 19.9998C8.96611 20.0032 8.82464 19.962 8.70493 19.882C8.58521 19.802 8.49308 19.6871 8.44108 19.5528L7.6751 17.5258C7.41382 17.4363 7.15507 17.3396 6.89913 17.2358C6.68986 17.1452 6.48374 17.0475 6.28115 16.9428L4.38122 17.7548C4.25608 17.8085 4.118 17.8245 3.9839 17.8009C3.84981 17.7773 3.72551 17.715 3.62624 17.6218L2.22029 16.3028C2.11522 16.2053 2.04366 16.0771 2.01583 15.9365C1.98799 15.7959 2.0053 15.65 2.0653 15.5199L2.88227 13.7399C2.774 13.5289 2.67327 13.3141 2.58028 13.0959C2.47196 12.8287 2.37191 12.5582 2.28029 12.2849L0.490351 11.7399C0.344856 11.6959 0.217954 11.6051 0.129353 11.4816C0.0407512 11.3581 -0.00459114 11.2088 0.000367456 11.0569L0.070365 9.13591C0.075565 9.01063 0.114805 8.88913 0.183869 8.78448C0.252933 8.67982 0.349209 8.59597 0.462352 8.54192L2.34029 7.63993C2.42695 7.32126 2.50361 7.07193 2.57028 6.89194C2.66463 6.65019 2.76939 6.41263 2.88427 6.17994L2.0703 4.45996C2.00806 4.32944 1.98904 4.18248 2.01601 4.04041C2.04299 3.89835 2.11454 3.76859 2.22029 3.66997L3.62424 2.34398C3.72253 2.25093 3.84568 2.18838 3.97879 2.16388C4.1119 2.13939 4.24925 2.15401 4.37422 2.20598L6.27215 2.98997C6.48148 2.85064 6.67214 2.73597 6.84413 2.64597C7.04879 2.53798 7.32345 2.42264 7.6681 2.29998L8.32808 0.458996C8.37737 0.324589 8.46668 0.208525 8.58397 0.126453C8.70126 0.0443811 8.8409 0.000246607 8.98406 0L11.078 0ZM10.588 1.37699H9.47504L8.87006 3.07097C8.83404 3.16949 8.77634 3.25865 8.70122 3.33187C8.6261 3.40509 8.53549 3.46048 8.43608 3.49397C8.00009 3.63897 7.6851 3.76396 7.50111 3.86096C7.30512 3.9643 7.05846 4.12096 6.76113 4.33096C6.66437 4.39921 6.55188 4.4418 6.43419 4.45474C6.31649 4.46768 6.19743 4.45055 6.08816 4.40496L4.25822 3.64997L3.54525 4.32396L4.28822 5.89394C4.3327 5.98735 4.35528 6.08968 4.35424 6.19314C4.3532 6.29659 4.32857 6.39844 4.28222 6.49094C4.08223 6.89194 3.94723 7.18793 3.87923 7.36993C3.77452 7.67276 3.68442 7.98044 3.60924 8.29192C3.58412 8.38937 3.53798 8.48015 3.47407 8.55788C3.41016 8.63562 3.33001 8.69843 3.23926 8.74192L1.44932 9.60091L1.41332 10.5809L3.03326 11.0729C3.24826 11.1379 3.41825 11.3029 3.48925 11.5149C3.64991 11.9962 3.77657 12.3482 3.86923 12.5709C3.99113 12.8526 4.12594 13.1286 4.27322 13.3979C4.32305 13.4905 4.3507 13.5935 4.35399 13.6986C4.35729 13.8038 4.33614 13.9083 4.29222 14.0039L3.54124 15.6419L4.25222 16.3098L6.03416 15.5479C6.13009 15.5066 6.23403 15.4874 6.33837 15.4915C6.4427 15.4957 6.54479 15.5231 6.63714 15.5719C7.00379 15.7639 7.27345 15.8965 7.44611 15.9698C7.6211 16.0428 7.95609 16.1648 8.44208 16.3308C8.53832 16.3642 8.62613 16.4182 8.69936 16.489C8.77259 16.5598 8.82948 16.6458 8.86606 16.7408L9.57404 18.6118L10.5 18.5918L11.097 16.9378C11.1316 16.8437 11.186 16.7581 11.2566 16.6869C11.3271 16.6156 11.4122 16.5604 11.506 16.5248L12.5429 16.1368C12.8056 16.0402 13.1226 15.8869 13.4939 15.6769C13.5965 15.6189 13.712 15.5878 13.8299 15.5864C13.9477 15.585 14.0639 15.6134 14.1679 15.6689L15.7448 16.5038L16.6318 15.7129L15.8558 13.9999C15.8159 13.9119 15.7952 13.8165 15.795 13.72C15.7948 13.6234 15.8152 13.5279 15.8548 13.4399C16.0368 13.0329 16.1598 12.7259 16.2218 12.5299C16.2838 12.3365 16.3455 12.0616 16.4068 11.7049C16.4278 11.584 16.4806 11.4708 16.5599 11.3771C16.6392 11.2834 16.742 11.2126 16.8578 11.1719L18.5057 10.5869L18.5777 9.44691L16.9578 8.75292C16.8718 8.71581 16.7941 8.66182 16.7293 8.59414C16.6646 8.52646 16.6141 8.44648 16.5808 8.35892C16.4655 8.04008 16.3394 7.72523 16.2028 7.41493C16.0737 7.14466 15.9336 6.87977 15.7828 6.62094C15.7305 6.52954 15.7 6.42723 15.694 6.32206C15.6879 6.2169 15.7063 6.11176 15.7478 6.01494L16.4728 4.31496L15.7088 3.52497L14.2209 4.31296C14.1238 4.36471 14.0159 4.39286 13.9059 4.39511C13.796 4.39737 13.687 4.37368 13.5879 4.32596C13.2723 4.16852 12.9492 4.02636 12.6199 3.89996C12.3394 3.80525 12.0532 3.72843 11.763 3.66997C11.6481 3.64503 11.5413 3.59156 11.4525 3.51449C11.3637 3.43742 11.2958 3.33922 11.255 3.22897L10.588 1.37699ZM10.024 5.64095C12.4589 5.64095 14.4339 7.59393 14.4339 10.0019C14.4339 12.4099 12.4589 14.3619 10.024 14.3619C7.58911 14.3619 5.61417 12.4099 5.61417 10.0019C5.61417 7.59393 7.58811 5.64195 10.024 5.64195M10.024 7.01993C8.35708 7.01993 7.00613 8.35492 7.00613 10.0029C7.00613 11.6509 8.35708 12.9869 10.024 12.9869C11.691 12.9869 13.0409 11.6509 13.0409 10.0029C13.0409 8.35492 11.691 7.01993 10.024 7.01993Z" fill="white"/>
</svg>
