<svg width="22" height="20" viewBox="0 0 22 20" fill="none" xmlns="http://www.w3.org/2000/svg">
<path d="M11.0002 13.9521V18.9521M15.0002 11.9521V18.9521M19.0002 7.95215V18.9521M21.0002 0.952148L12.3542 9.59815C12.3078 9.64471 12.2526 9.68165 12.1919 9.70686C12.1311 9.73207 12.066 9.74504 12.0002 9.74504C11.9345 9.74504 11.8694 9.73207 11.8086 9.70686C11.7479 9.68165 11.6927 9.64471 11.6462 9.59815L8.35424 6.30615C8.26048 6.21241 8.13333 6.15975 8.00074 6.15975C7.86816 6.15975 7.74101 6.21241 7.64724 6.30615L1.00024 12.9521M3.00024 15.9521V18.9521M7.00024 11.9521V18.9521" stroke="white" stroke-linecap="round" stroke-linejoin="round"/>
</svg>
