<svg width="25" height="24" viewBox="0 0 25 24" fill="none" xmlns="http://www.w3.org/2000/svg">
<path d="M3.25 6L6.25 2H18.25L21.25 6M3.25 6V20C3.25 20.5304 3.46071 21.0391 3.83579 21.4142C4.21086 21.7893 4.71957 22 5.25 22H19.25C19.7804 22 20.2891 21.7893 20.6642 21.4142C21.0393 21.0391 21.25 20.5304 21.25 20V6M3.25 6H21.25" stroke="#9D9D9D" stroke-linecap="round" stroke-linejoin="round"/>
<path d="M16.25 10C16.25 11.0609 15.8286 12.0783 15.0784 12.8284C14.3283 13.5786 13.3109 14 12.25 14C11.1891 14 10.1717 13.5786 9.42157 12.8284C8.67143 12.0783 8.25 11.0609 8.25 10" stroke="#9D9D9D" stroke-linecap="round" stroke-linejoin="round"/>
</svg>
