<svg width="22" height="16" viewBox="0 0 22 16" fill="none" xmlns="http://www.w3.org/2000/svg">
<path d="M11.75 1V3M11.75 13V15M11.75 7V9M0.75 5C1.54565 5 2.30871 5.31607 2.87132 5.87868C3.43393 6.44129 3.75 7.20435 3.75 8C3.75 8.79565 3.43393 9.55871 2.87132 10.1213C2.30871 10.6839 1.54565 11 0.75 11V13C0.75 13.5304 0.960714 14.0391 1.33579 14.4142C1.71086 14.7893 2.21957 15 2.75 15H18.75C19.2804 15 19.7891 14.7893 20.1642 14.4142C20.5393 14.0391 20.75 13.5304 20.75 13V11C19.9544 11 19.1913 10.6839 18.6287 10.1213C18.0661 9.55871 17.75 8.79565 17.75 8C17.75 7.20435 18.0661 6.44129 18.6287 5.87868C19.1913 5.31607 19.9544 5 20.75 5V3C20.75 2.46957 20.5393 1.96086 20.1642 1.58579C19.7891 1.21071 19.2804 1 18.75 1H2.75C2.21957 1 1.71086 1.21071 1.33579 1.58579C0.960714 1.96086 0.75 2.46957 0.75 3V5Z" stroke="#9D9D9D" stroke-linecap="round" stroke-linejoin="round"/>
</svg>
